<svg width="419" height="383" viewBox="0 0 419 383" fill="none" xmlns="http://www.w3.org/2000/svg">
<rect x="1.5" y="1.5" width="416" height="380" rx="38.5" fill="url(#paint0_linear_208_37)" stroke="#409F81" stroke-width="3"/>
<path d="M346.368 327.934H382.491M382.491 327.934L367.44 312.781M382.491 327.934L367.44 343.087" stroke="#36BFC7" stroke-opacity="0.972549" stroke-width="5" stroke-linecap="round" stroke-linejoin="round"/>
<path d="M128.042 209V174.091H135.423V188.494H150.406V174.091H157.769V209H150.406V194.58H135.423V209H128.042ZM169.871 209H161.962L174.013 174.091H183.525L195.559 209H187.65L178.906 182.068H178.633L169.871 209ZM169.377 195.278H188.059V201.04H169.377V195.278ZM199.761 209V174.091H207.141V202.915H222.107V209H199.761ZM226.995 209V174.091H234.376V202.915H249.342V209H226.995ZM278.532 209.477C276.737 209.466 275.004 209.165 273.333 208.574C271.674 207.983 270.185 207.023 268.867 205.693C267.549 204.364 266.504 202.602 265.731 200.409C264.969 198.216 264.589 195.523 264.589 192.33C264.6 189.398 264.935 186.778 265.594 184.472C266.265 182.153 267.219 180.187 268.458 178.574C269.708 176.96 271.202 175.733 272.941 174.892C274.68 174.04 276.629 173.614 278.788 173.614C281.117 173.614 283.174 174.068 284.958 174.977C286.742 175.875 288.174 177.097 289.254 178.642C290.344 180.188 291.004 181.92 291.231 183.841H283.952C283.668 182.625 283.072 181.67 282.163 180.977C281.254 180.284 280.129 179.938 278.788 179.938C276.515 179.938 274.788 180.926 273.606 182.903C272.435 184.881 271.839 187.568 271.816 190.966H272.055C272.577 189.932 273.282 189.051 274.168 188.324C275.066 187.585 276.083 187.023 277.219 186.636C278.367 186.239 279.577 186.04 280.85 186.04C282.918 186.04 284.759 186.528 286.373 187.506C287.987 188.472 289.259 189.801 290.191 191.494C291.123 193.187 291.589 195.125 291.589 197.307C291.589 199.67 291.038 201.773 289.935 203.614C288.844 205.455 287.316 206.898 285.35 207.943C283.396 208.977 281.123 209.489 278.532 209.477ZM278.498 203.682C279.634 203.682 280.651 203.409 281.549 202.864C282.447 202.318 283.151 201.58 283.663 200.648C284.174 199.716 284.43 198.67 284.43 197.511C284.43 196.352 284.174 195.312 283.663 194.392C283.163 193.472 282.469 192.739 281.583 192.193C280.697 191.648 279.685 191.375 278.549 191.375C277.697 191.375 276.907 191.534 276.18 191.852C275.464 192.17 274.833 192.614 274.288 193.182C273.754 193.75 273.333 194.409 273.026 195.159C272.719 195.898 272.566 196.687 272.566 197.528C272.566 198.653 272.822 199.682 273.333 200.614C273.856 201.545 274.56 202.29 275.447 202.847C276.344 203.403 277.362 203.682 278.498 203.682Z" fill="#34BBC2"/>
<defs>
<linearGradient id="paint0_linear_208_37" x1="209.5" y1="3" x2="209.5" y2="380" gradientUnits="userSpaceOnUse">
<stop/>
<stop offset="1" stop-color="#0D212C"/>
</linearGradient>
</defs>
</svg>
