<svg width="419" height="383" viewBox="0 0 419 383" fill="none" xmlns="http://www.w3.org/2000/svg">
<rect x="1.5" y="1.5" width="416" height="380" rx="38.5" fill="url(#paint0_linear_208_74)" stroke="#409F81" stroke-width="3"/>
<path d="M346.368 327.934H382.491M382.491 327.934L367.44 312.781M382.491 327.934L367.44 343.087" stroke="#36BFC7" stroke-opacity="0.972549" stroke-width="5" stroke-linecap="round" stroke-linejoin="round"/>
<path d="M116.276 209V174.091H123.657V188.494H138.64V174.091H146.004V209H138.64V194.58H123.657V209H116.276ZM158.106 209H150.197L162.248 174.091H171.759L183.793 209H175.884L167.14 182.068H166.867L158.106 209ZM157.612 195.278H176.293V201.04H157.612V195.278ZM187.995 209V174.091H195.376V202.915H210.342V209H187.995ZM215.229 209V174.091H222.61V202.915H237.576V209H215.229ZM268.556 174.091V209H261.175V181.097H260.971L252.977 186.108V179.562L261.619 174.091H268.556ZM289.876 209.477C287.251 209.477 284.915 209.051 282.87 208.199C280.836 207.335 279.239 206.159 278.08 204.67C276.921 203.182 276.342 201.494 276.342 199.608C276.342 198.153 276.671 196.818 277.33 195.602C278.001 194.375 278.91 193.358 280.058 192.551C281.205 191.733 282.489 191.21 283.91 190.983V190.744C282.046 190.369 280.535 189.466 279.376 188.034C278.217 186.591 277.637 184.915 277.637 183.006C277.637 181.199 278.165 179.591 279.222 178.182C280.279 176.761 281.728 175.648 283.569 174.841C285.421 174.023 287.523 173.614 289.876 173.614C292.228 173.614 294.325 174.023 296.165 174.841C298.018 175.659 299.472 176.778 300.529 178.199C301.586 179.608 302.12 181.21 302.131 183.006C302.12 184.926 301.529 186.602 300.359 188.034C299.188 189.466 297.688 190.369 295.859 190.744V190.983C297.256 191.21 298.523 191.733 299.66 192.551C300.808 193.358 301.717 194.375 302.387 195.602C303.069 196.818 303.415 198.153 303.427 199.608C303.415 201.494 302.83 203.182 301.671 204.67C300.512 206.159 298.91 207.335 296.864 208.199C294.83 209.051 292.501 209.477 289.876 209.477ZM289.876 204.057C291.046 204.057 292.069 203.847 292.944 203.426C293.819 202.994 294.501 202.403 294.989 201.653C295.489 200.892 295.739 200.017 295.739 199.028C295.739 198.017 295.484 197.125 294.972 196.352C294.461 195.568 293.768 194.955 292.893 194.511C292.018 194.057 291.012 193.83 289.876 193.83C288.751 193.83 287.745 194.057 286.859 194.511C285.972 194.955 285.273 195.568 284.762 196.352C284.262 197.125 284.012 198.017 284.012 199.028C284.012 200.017 284.256 200.892 284.745 201.653C285.234 202.403 285.921 202.994 286.808 203.426C287.694 203.847 288.717 204.057 289.876 204.057ZM289.876 188.46C290.853 188.46 291.722 188.261 292.484 187.864C293.245 187.466 293.842 186.915 294.273 186.21C294.705 185.506 294.921 184.693 294.921 183.773C294.921 182.864 294.705 182.068 294.273 181.386C293.842 180.693 293.251 180.153 292.501 179.767C291.751 179.369 290.876 179.17 289.876 179.17C288.887 179.17 288.012 179.369 287.251 179.767C286.489 180.153 285.893 180.693 285.461 181.386C285.04 182.068 284.83 182.864 284.83 183.773C284.83 184.693 285.046 185.506 285.478 186.21C285.91 186.915 286.506 187.466 287.268 187.864C288.029 188.261 288.898 188.46 289.876 188.46Z" fill="#34BBC2"/>
<defs>
<linearGradient id="paint0_linear_208_74" x1="209.5" y1="3" x2="209.5" y2="380" gradientUnits="userSpaceOnUse">
<stop/>
<stop offset="1" stop-color="#0D212C"/>
</linearGradient>
</defs>
</svg>
