<svg width="435" height="66" viewBox="0 0 435 66" fill="none" xmlns="http://www.w3.org/2000/svg">
<path d="M194.361 1.29188H192.135V65.9851H194.361V1.29188Z" fill="white"/>
<path d="M128.259 45.7225L142.301 41.8622C153.744 38.6779 161.243 32.9851 161.243 21.4944C161.243 9.22269 153.355 0.345587 133.936 0.345587C112.499 0.345587 103.94 11.7311 103.94 24.2882V25.5349H118.071V24.2882C118.071 17.1385 121.627 13.5636 133.458 13.5636C144.034 13.5636 146.723 16.3574 146.723 21.2841C146.723 25.5349 144.602 27.4576 138.836 29.4853L122.299 34.8927C108.75 39.4289 103.835 45.3169 103.835 56.7175V65.9851H161.034V52.9473H119.027C119.027 47.8253 122 47.6301 128.259 45.7074" fill="white"/>
<path d="M73.7349 1.29188L45.2328 32.7147L16.7308 1.29188H0V66.0001H14.4153V17.9947H15.476L35.1794 39.534L36.0757 40.6005H55.2713V39.534L74.9897 17.9947H76.0354V40.6005H90.4657V1.29188H73.7349Z" fill="white"/>
<path d="M90.4507 53.6383H76.0354V66.0001H90.4507V53.6383Z" fill="white"/>
<path d="M90.4657 40.6005H55.2713H36.0757L37.0915 41.682L48.101 53.6383H100.265V40.6005H90.4657Z" fill="#00A5B5"/>
<path d="M230.496 10.6947L228.495 4.89679L226.508 10.6947H230.496ZM231.243 12.9177H225.761L224.85 15.5613H221.952L226.896 1.69743H230.108L235.067 15.5613H232.154L231.243 12.9177Z" fill="white"/>
<path d="M244.015 8.32146C243.746 7.84081 243.403 7.4653 242.955 7.20995C242.507 6.9546 242.028 6.81942 241.521 6.81942C241.013 6.81942 240.535 6.93958 240.101 7.19493C239.668 7.45028 239.31 7.81077 239.041 8.29142C238.772 8.77208 238.638 9.34286 238.638 10.0038C238.638 10.6647 238.772 11.2505 239.041 11.7311C239.31 12.2268 239.668 12.6023 240.101 12.8727C240.535 13.143 241.013 13.2632 241.506 13.2632C241.999 13.2632 242.492 13.143 242.94 12.8727C243.388 12.6173 243.746 12.2418 244 11.7612C244.269 11.2805 244.389 10.6947 244.389 10.0188C244.389 9.34286 244.254 8.77208 244 8.29142M236.471 7.05974C236.92 6.20358 237.517 5.54267 238.279 5.07704C239.041 4.6114 239.892 4.3861 240.819 4.3861C241.536 4.3861 242.208 4.55132 242.85 4.85173C243.492 5.16716 244 5.57271 244.389 6.09843V0.871304H247.197V15.5463H244.389V13.9241C244.045 14.4648 243.567 14.9004 242.955 15.2309C242.342 15.5613 241.625 15.7266 240.804 15.7266C239.892 15.7266 239.041 15.4862 238.279 15.0056C237.517 14.5249 236.92 13.864 236.471 12.9928C236.038 12.1216 235.814 11.1303 235.814 10.0038C235.814 8.87722 236.038 7.90089 236.471 7.04472" fill="white"/>
<path d="M254.069 12.9928L256.832 4.56634H259.775L255.727 15.5463H252.366L248.347 4.56634H251.305L254.069 12.9928Z" fill="white"/>
<path d="M268.424 8.32146C268.155 7.84081 267.812 7.4653 267.364 7.20995C266.915 6.9546 266.438 6.81942 265.93 6.81942C265.422 6.81942 264.944 6.93958 264.51 7.19493C264.077 7.45028 263.719 7.81077 263.45 8.29142C263.181 8.77208 263.047 9.34286 263.047 10.0038C263.047 10.6647 263.181 11.2505 263.45 11.7311C263.719 12.2268 264.077 12.6023 264.51 12.8727C264.944 13.143 265.422 13.2632 265.915 13.2632C266.408 13.2632 266.901 13.143 267.349 12.8727C267.797 12.6173 268.155 12.2418 268.409 11.7612C268.678 11.2805 268.798 10.6947 268.798 10.0188C268.798 9.34286 268.663 8.77208 268.409 8.29142M260.88 7.05974C261.329 6.20358 261.911 5.54267 262.673 5.07704C263.435 4.6114 264.271 4.3861 265.198 4.3861C266.019 4.3861 266.736 4.55132 267.349 4.88177C267.961 5.21222 268.454 5.6328 268.813 6.12847V4.56634H271.606V15.5613H268.813V13.9541C268.454 14.4648 267.976 14.9004 267.349 15.2309C266.721 15.5764 266.004 15.7416 265.183 15.7416C264.257 15.7416 263.42 15.5013 262.673 15.0206C261.911 14.5399 261.314 13.879 260.88 13.0079C260.447 12.1367 260.223 11.1453 260.223 10.0188C260.223 8.89224 260.447 7.91591 260.88 7.05974Z" fill="white"/>
<path d="M283.123 5.64782C283.93 6.47394 284.318 7.63052 284.318 9.10253V15.5463H281.555V9.47804C281.555 8.60685 281.331 7.93093 280.898 7.4653C280.464 6.99966 279.867 6.75933 279.12 6.75933C278.373 6.75933 277.761 6.98464 277.312 7.4653C276.879 7.93093 276.655 8.60685 276.655 9.47804V15.5463H273.892V4.56634H276.655V5.93321C277.029 5.45255 277.492 5.07704 278.059 4.80667C278.627 4.5363 279.254 4.40112 279.942 4.40112C281.241 4.40112 282.302 4.82169 283.094 5.64782" fill="white"/>
<path d="M286.544 7.07476C287.007 6.2186 287.635 5.55769 288.456 5.09206C289.278 4.62643 290.204 4.3861 291.25 4.3861C292.609 4.3861 293.73 4.73157 294.611 5.40749C295.492 6.08341 296.09 7.04472 296.404 8.2764H293.431C293.266 7.79575 292.998 7.42023 292.624 7.14987C292.251 6.8795 291.788 6.74431 291.235 6.74431C290.443 6.74431 289.816 7.0297 289.353 7.60048C288.89 8.17126 288.666 8.99739 288.666 10.0488C288.666 11.1003 288.89 11.8963 289.353 12.4821C289.816 13.0529 290.443 13.3383 291.235 13.3383C292.355 13.3383 293.087 12.8426 293.431 11.8363H296.404C296.105 13.0229 295.507 13.9692 294.611 14.6751C293.715 15.3811 292.594 15.7266 291.25 15.7266C290.189 15.7266 289.263 15.4862 288.456 15.0206C287.635 14.555 287.007 13.8941 286.544 13.0379C286.081 12.1817 285.857 11.1904 285.857 10.0488C285.857 8.90726 286.096 7.91591 286.544 7.05974" fill="white"/>
<path d="M300.81 15.5463H298.047V4.56634H300.81V15.5613V15.5463ZM298.226 2.79393C297.897 2.4785 297.748 2.10298 297.748 1.63735C297.748 1.17171 297.912 0.781181 298.226 0.480772C298.555 0.165342 298.958 0.0151367 299.436 0.0151367C299.914 0.0151367 300.332 0.165342 300.646 0.480772C300.975 0.796202 301.124 1.18673 301.124 1.63735C301.124 2.08796 300.96 2.49352 300.646 2.79393C300.317 3.10936 299.914 3.25956 299.436 3.25956C298.958 3.25956 298.54 3.10936 298.226 2.79393Z" fill="white"/>
<path d="M312.343 5.64782C313.149 6.47394 313.538 7.63052 313.538 9.10253V15.5463H310.774V9.47804C310.774 8.60685 310.55 7.93093 310.117 7.4653C309.684 6.99966 309.086 6.75933 308.339 6.75933C307.592 6.75933 306.98 6.98464 306.532 7.4653C306.098 7.93093 305.874 8.60685 305.874 9.47804V15.5463H303.111V4.56634H305.874V5.93321C306.248 5.45255 306.711 5.07704 307.279 4.80667C307.846 4.5363 308.474 4.40112 309.161 4.40112C310.46 4.40112 311.521 4.82169 312.313 5.64782" fill="white"/>
<path d="M323.277 8.32146C323.008 7.84081 322.665 7.4653 322.217 7.20995C321.769 6.9546 321.291 6.81942 320.783 6.81942C320.275 6.81942 319.797 6.93958 319.363 7.19493C318.93 7.45028 318.572 7.81077 318.303 8.29142C318.034 8.77208 317.9 9.34286 317.9 10.0038C317.9 10.6647 318.034 11.2505 318.303 11.7461C318.572 12.2418 318.93 12.6173 319.363 12.8877C319.797 13.1581 320.275 13.2782 320.768 13.2782C321.261 13.2782 321.754 13.1581 322.202 12.8877C322.65 12.6323 323.008 12.2568 323.262 11.7762C323.531 11.2955 323.651 10.7097 323.651 10.0338C323.651 9.35788 323.516 8.7871 323.262 8.30644M322.202 4.86675C322.829 5.1972 323.307 5.61778 323.666 6.12847V4.56634H326.444V15.6364C326.444 16.6578 326.235 17.5591 325.832 18.3702C325.428 19.1663 324.816 19.8121 323.994 20.2778C323.173 20.7434 322.202 20.9837 321.037 20.9837C319.483 20.9837 318.213 20.6232 317.212 19.8872C316.226 19.1663 315.659 18.1749 315.524 16.9132H318.273C318.422 17.4089 318.736 17.8144 319.214 18.1148C319.692 18.4152 320.275 18.5654 320.962 18.5654C321.769 18.5654 322.411 18.3251 322.919 17.8444C323.412 17.3638 323.666 16.6278 323.666 15.6515V13.9391C323.307 14.4498 322.829 14.8854 322.202 15.2309C321.574 15.5764 320.857 15.7416 320.066 15.7416C319.154 15.7416 318.303 15.5013 317.541 15.0206C316.779 14.5399 316.182 13.879 315.734 13.0079C315.3 12.1367 315.076 11.1453 315.076 10.0188C315.076 8.89224 315.3 7.91591 315.734 7.05974C316.182 6.20358 316.779 5.54267 317.526 5.07704C318.288 4.6114 319.124 4.3861 320.066 4.3861C320.887 4.3861 321.604 4.55132 322.217 4.86675" fill="white"/>
<path d="M335.825 1.71245H333.062V15.5613H335.825V1.71245Z" fill="white"/>
<path d="M347.358 5.64782C348.164 6.47394 348.553 7.63052 348.553 9.10253V15.5463H345.789V9.47804C345.789 8.60685 345.565 7.93093 345.132 7.4653C344.699 6.99966 344.101 6.75933 343.354 6.75933C342.607 6.75933 341.995 6.98464 341.547 7.4653C341.113 7.93093 340.889 8.60685 340.889 9.47804V15.5463H338.126V4.56634H340.889V5.93321C341.263 5.45255 341.726 5.07704 342.294 4.80667C342.861 4.5363 343.489 4.40112 344.176 4.40112C345.475 4.40112 346.536 4.82169 347.328 5.64782" fill="white"/>
<path d="M360.01 5.64782C360.817 6.47394 361.205 7.63052 361.205 9.10253V15.5463H358.442V9.47804C358.442 8.60685 358.218 7.93093 357.784 7.4653C357.351 6.99966 356.754 6.75933 356.007 6.75933C355.26 6.75933 354.647 6.98464 354.199 7.4653C353.766 7.93093 353.542 8.60685 353.542 9.47804V15.5463H350.779V4.56634H353.542V5.93321C353.915 5.45255 354.379 5.07704 354.946 4.80667C355.514 4.5363 356.141 4.40112 356.828 4.40112C358.128 4.40112 359.189 4.82169 359.98 5.64782" fill="white"/>
<path d="M369.705 12.9478C370.138 12.7074 370.497 12.3319 370.766 11.8513C371.035 11.3556 371.154 10.7698 371.154 10.0638C371.154 9.01241 370.885 8.21632 370.333 7.66056C369.795 7.1048 369.123 6.81942 368.331 6.81942C367.539 6.81942 366.882 7.1048 366.344 7.66056C365.806 8.21632 365.537 9.02743 365.537 10.0638C365.537 11.1003 365.791 11.9114 366.314 12.4671C366.837 13.0379 367.494 13.3083 368.271 13.3083C368.779 13.3083 369.242 13.1881 369.675 12.9478M365.448 15.0206C364.611 14.555 363.939 13.879 363.461 13.0229C362.983 12.1667 362.744 11.1754 362.744 10.0488C362.744 8.92228 362.998 7.93093 363.491 7.07476C363.984 6.2186 364.656 5.5577 365.508 5.07704C366.359 4.6114 367.315 4.37108 368.361 4.37108C369.406 4.37108 370.362 4.6114 371.229 5.07704C372.08 5.54267 372.753 6.20358 373.246 7.07476C373.738 7.93093 373.992 8.92228 373.992 10.0488C373.992 11.1754 373.738 12.1667 373.231 13.0229C372.723 13.879 372.035 14.5399 371.184 15.0206C370.318 15.4862 369.362 15.7266 368.286 15.7266C367.21 15.7266 366.284 15.4862 365.448 15.0206Z" fill="white"/>
<path d="M380.192 12.9928L382.955 4.56634H385.898L381.85 15.5463H378.504L374.47 4.56634H377.428L380.192 12.9928Z" fill="white"/>
<path d="M394.562 8.32146C394.293 7.84081 393.95 7.4653 393.502 7.20995C393.054 6.9546 392.576 6.81942 392.068 6.81942C391.56 6.81942 391.082 6.93958 390.649 7.19493C390.215 7.45028 389.857 7.81077 389.588 8.29142C389.319 8.77208 389.185 9.34286 389.185 10.0038C389.185 10.6647 389.319 11.2505 389.588 11.7311C389.857 12.2268 390.215 12.6023 390.649 12.8727C391.082 13.143 391.56 13.2632 392.053 13.2632C392.546 13.2632 393.039 13.143 393.487 12.8727C393.935 12.6173 394.293 12.2418 394.547 11.7612C394.816 11.2805 394.936 10.6947 394.936 10.0188C394.936 9.34286 394.801 8.77208 394.547 8.29142M387.004 7.05974C387.452 6.20358 388.034 5.54267 388.796 5.07704C389.558 4.6114 390.395 4.3861 391.321 4.3861C392.142 4.3861 392.859 4.55132 393.472 4.88177C394.084 5.21222 394.577 5.6328 394.936 6.12847V4.56634H397.729V15.5613H394.936V13.9541C394.577 14.4648 394.099 14.9004 393.472 15.2309C392.844 15.5764 392.127 15.7416 391.306 15.7416C390.38 15.7416 389.543 15.5013 388.796 15.0206C388.034 14.5399 387.437 13.879 387.004 13.0079C386.57 12.1367 386.346 11.1453 386.346 10.0188C386.346 8.89224 386.57 7.91591 387.004 7.05974Z" fill="white"/>
<path d="M403.256 6.84946V12.1667C403.256 12.5422 403.346 12.7976 403.525 12.9778C403.704 13.143 404.003 13.2181 404.422 13.2181H405.706V15.5613H403.973C401.643 15.5613 400.478 14.4198 400.478 12.1517V6.84946H399.178V4.56634H400.478V1.84764H403.256V4.56634H405.706V6.84946H403.256Z" fill="white"/>
<path d="M410.068 15.5463H407.305V4.56634H410.068V15.5613V15.5463ZM407.484 2.79393C407.155 2.4785 407.006 2.10298 407.006 1.63735C407.006 1.17171 407.17 0.781181 407.484 0.480772C407.812 0.165342 408.216 0.0151367 408.694 0.0151367C409.172 0.0151367 409.59 0.165342 409.904 0.480772C410.232 0.796202 410.382 1.18673 410.382 1.63735C410.382 2.08796 410.217 2.49352 409.904 2.79393C409.575 3.10936 409.172 3.25956 408.694 3.25956C408.216 3.25956 407.798 3.10936 407.484 2.79393Z" fill="white"/>
<path d="M418.658 12.9478C419.091 12.7074 419.449 12.3319 419.718 11.8513C419.987 11.3556 420.107 10.7698 420.107 10.0638C420.107 9.01241 419.838 8.21632 419.285 7.66056C418.747 7.1048 418.075 6.81942 417.283 6.81942C416.492 6.81942 415.834 7.1048 415.297 7.66056C414.759 8.21632 414.49 9.02743 414.49 10.0638C414.49 11.1003 414.744 11.9114 415.267 12.4671C415.789 13.0379 416.447 13.3083 417.224 13.3083C417.731 13.3083 418.195 13.1881 418.628 12.9478M414.4 15.0206C413.564 14.555 412.891 13.879 412.413 13.0229C411.935 12.1667 411.696 11.1754 411.696 10.0488C411.696 8.92228 411.95 7.93093 412.443 7.07476C412.936 6.2186 413.609 5.5577 414.46 5.07704C415.311 4.6114 416.267 4.37108 417.313 4.37108C418.359 4.37108 419.315 4.6114 420.181 5.07704C421.033 5.54267 421.705 6.20358 422.198 7.07476C422.691 7.93093 422.945 8.92228 422.945 10.0488C422.945 11.1754 422.691 12.1667 422.183 13.0229C421.675 13.879 420.988 14.5399 420.136 15.0206C419.27 15.4862 418.314 15.7266 417.238 15.7266C416.163 15.7266 415.237 15.4862 414.4 15.0206Z" fill="white"/>
<path d="M433.79 5.64782C434.597 6.47394 434.985 7.63052 434.985 9.10253V15.5463H432.221V9.47804C432.221 8.60685 431.997 7.93093 431.564 7.4653C431.131 6.99966 430.533 6.75933 429.787 6.75933C429.04 6.75933 428.427 6.98464 427.979 7.4653C427.546 7.93093 427.322 8.60685 427.322 9.47804V15.5463H424.558V4.56634H427.322V5.93321C427.695 5.45255 428.158 5.07704 428.726 4.80667C429.294 4.5363 429.921 4.40112 430.608 4.40112C431.908 4.40112 432.968 4.82169 433.76 5.64782" fill="white"/>
<path d="M225.552 40.4953H222.788V29.5003H225.552V40.4953ZM222.982 27.7279C222.654 27.4125 222.504 27.037 222.504 26.5714C222.504 26.1057 222.669 25.7152 222.982 25.4148C223.311 25.0993 223.714 24.9491 224.192 24.9491C224.67 24.9491 225.089 25.0993 225.402 25.4148C225.716 25.7302 225.88 26.1207 225.88 26.5714C225.88 27.022 225.716 27.4275 225.402 27.7279C225.074 28.0434 224.67 28.1936 224.192 28.1936C223.714 28.1936 223.296 28.0434 222.982 27.7279Z" fill="white"/>
<path d="M237.099 30.5818C237.906 31.4079 238.294 32.5645 238.294 34.0365V40.4803H235.53V34.412C235.53 33.5409 235.306 32.8649 234.873 32.3993C234.44 31.9337 233.842 31.6933 233.095 31.6933C232.349 31.6933 231.736 31.9186 231.288 32.3993C230.855 32.8649 230.631 33.5409 230.631 34.412V40.4803H227.867V29.4853H230.631V30.8522C231.004 30.3715 231.467 29.996 232.035 29.7257C232.603 29.4553 233.23 29.3201 233.917 29.3201C235.217 29.3201 236.277 29.7407 237.069 30.5668" fill="white"/>
<path d="M256.25 26.6465V40.4953H253.501V34.6073H247.6V40.4953H244.837V26.6465H247.6V32.3392H253.501V26.6465H256.25Z" fill="white"/>
<path d="M265.885 33.9614C265.885 33.2555 265.616 32.6697 265.108 32.2491C264.6 31.8285 264.003 31.6032 263.271 31.6032C262.583 31.6032 262.016 31.8135 261.553 32.2341C261.09 32.6546 260.806 33.2254 260.701 33.9614H265.885ZM268.663 35.824H260.671C260.731 36.6201 261.015 37.2359 261.493 37.6865C261.986 38.1371 262.583 38.3624 263.286 38.3624C264.316 38.3624 265.048 37.9268 265.467 37.0256H268.439C268.126 38.0921 267.513 38.9482 266.632 39.6392C265.735 40.3151 264.63 40.6606 263.33 40.6606C262.27 40.6606 261.329 40.4353 260.492 39.9546C259.656 39.489 258.998 38.813 258.535 37.9569C258.072 37.1007 257.833 36.1094 257.833 34.9828C257.833 33.8563 258.057 32.8499 258.52 31.9937C258.983 31.1376 259.626 30.4767 260.447 30.011C261.269 29.5454 262.225 29.3201 263.315 29.3201C264.406 29.3201 265.287 29.5454 266.109 29.996C266.93 30.4466 267.573 31.0775 268.021 31.9036C268.469 32.7298 268.693 33.676 268.693 34.7575C268.693 35.148 268.663 35.5085 268.618 35.824" fill="white"/>
<path d="M277.865 33.2555C277.596 32.7748 277.253 32.3993 276.805 32.1439C276.356 31.8886 275.878 31.7534 275.371 31.7534C274.863 31.7534 274.385 31.8736 273.951 32.1289C273.518 32.3843 273.16 32.7448 272.891 33.2254C272.622 33.7061 272.487 34.2769 272.487 34.9378C272.487 35.5987 272.622 36.1694 272.891 36.6651C273.16 37.1608 273.518 37.5363 273.951 37.8067C274.385 38.077 274.863 38.1972 275.356 38.1972C275.849 38.1972 276.341 38.077 276.79 37.8067C277.238 37.5513 277.596 37.1758 277.85 36.6952C278.104 36.2145 278.239 35.6287 278.239 34.9528C278.239 34.2769 278.104 33.7061 277.85 33.2254M270.306 32.0088C270.755 31.1526 271.337 30.4917 272.099 30.0261C272.861 29.5604 273.697 29.3351 274.639 29.3351C275.46 29.3351 276.177 29.5003 276.79 29.8308C277.402 30.1612 277.895 30.5818 278.254 31.0775V29.5154H281.047V40.5104H278.254V38.9032C277.895 39.4139 277.417 39.8495 276.79 40.1799C276.162 40.5104 275.445 40.6906 274.624 40.6906C273.697 40.6906 272.861 40.4503 272.114 39.9696C271.352 39.489 270.755 38.8281 270.321 37.9569C269.888 37.0857 269.664 36.0943 269.664 34.9678C269.664 33.8413 269.888 32.8649 270.321 32.0088" fill="white"/>
<path d="M286.111 25.8053H283.348V40.4803H286.111V25.8053Z" fill="white"/>
<path d="M291.653 31.7835V37.1007C291.653 37.4762 291.743 37.7316 291.922 37.9118C292.101 38.077 292.4 38.1672 292.818 38.1672H294.103V40.5104H292.37C290.04 40.5104 288.875 39.3688 288.875 37.1007V31.7985H287.575V29.5154H288.875V26.7967H291.653V29.5154H294.103V31.7985H291.653V31.7835Z" fill="white"/>
<path d="M304.052 29.8909C304.694 30.2514 305.202 30.7921 305.561 31.4981C305.919 32.204 306.098 33.0602 306.098 34.0516V40.4953H303.335V34.4271C303.335 33.5559 303.111 32.88 302.678 32.4143C302.244 31.9487 301.647 31.7084 300.9 31.7084C300.153 31.7084 299.541 31.9487 299.092 32.4143C298.659 32.88 298.435 33.5559 298.435 34.4271V40.4953H295.672V25.8203H298.435V30.8822C298.794 30.4016 299.272 30.0411 299.854 29.7557C300.452 29.4853 301.094 29.3501 301.826 29.3501C302.648 29.3501 303.395 29.5304 304.037 29.8909" fill="white"/>
<path d="M311.357 37.5814L309.056 43.154H307.278L308.563 37.5814H311.357Z" fill="white"/>
<path d="M322.261 31.7835H320.349V40.4953H317.556V31.7835H316.316V29.5003H317.556V28.9446C317.556 27.5927 317.929 26.6014 318.706 25.9705C319.468 25.3397 320.618 25.0393 322.157 25.0843V27.4275C321.485 27.4275 321.022 27.5327 320.753 27.758C320.484 27.9983 320.349 28.4339 320.349 29.0497V29.5003H322.261V31.7835Z" fill="white"/>
<path d="M329.925 37.8818C330.358 37.6414 330.717 37.2659 330.985 36.7853C331.254 36.2896 331.374 35.7038 331.374 34.9978C331.374 33.9614 331.105 33.1503 330.552 32.5946C330.014 32.0388 329.342 31.7534 328.55 31.7534C327.759 31.7534 327.101 32.0388 326.579 32.5946C326.041 33.1503 325.772 33.9614 325.772 34.9978C325.772 36.0343 326.026 36.8454 326.549 37.4161C327.072 37.9869 327.729 38.2573 328.506 38.2573C329.014 38.2573 329.477 38.1371 329.91 37.8968M325.682 39.9696C324.846 39.504 324.174 38.8281 323.696 37.9719C323.218 37.1157 322.979 36.1244 322.979 34.9978C322.979 33.8713 323.233 32.88 323.725 32.0238C324.218 31.1676 324.891 30.5067 325.742 30.0261C326.594 29.5604 327.55 29.3201 328.595 29.3201C329.641 29.3201 330.597 29.5604 331.463 30.0261C332.315 30.4917 332.987 31.1526 333.48 32.0238C333.973 32.88 334.227 33.8713 334.227 34.9978C334.227 36.1244 333.973 37.1157 333.465 37.9719C332.957 38.8281 332.27 39.489 331.419 39.9696C330.552 40.4353 329.596 40.6756 328.521 40.6756C327.445 40.6756 326.519 40.4503 325.682 39.9696Z" fill="white"/>
<path d="M340.008 29.8458C340.576 29.5154 341.233 29.3501 341.965 29.3501V32.2641H341.233C340.367 32.2641 339.709 32.4744 339.276 32.88C338.843 33.2855 338.619 34.0065 338.619 35.0279V40.5104H335.855V29.5154H338.619V31.2277C338.977 30.6419 339.44 30.1913 340.008 29.8608" fill="white"/>
<path d="M354.394 32.4143C354.767 32.0688 354.946 31.5732 354.946 30.9273C354.946 29.5754 354.199 28.8995 352.691 28.8995H350.495V32.925H352.691C353.452 32.925 354.02 32.7448 354.394 32.3993M357.262 33.0151C356.918 33.661 356.365 34.1867 355.618 34.5773C354.872 34.9678 353.93 35.1781 352.81 35.1781H350.51V40.4953H347.746V26.6465H352.81C353.871 26.6465 354.782 26.8267 355.529 27.2022C356.276 27.5777 356.843 28.0884 357.217 28.7343C357.59 29.3802 357.784 30.1162 357.784 30.9423C357.784 31.6783 357.605 32.3843 357.262 33.0302" fill="white"/>
<path d="M366.643 33.9614C366.643 33.2555 366.374 32.6697 365.866 32.2491C365.358 31.8285 364.761 31.6032 364.029 31.6032C363.341 31.6032 362.774 31.8135 362.311 32.2341C361.848 32.6546 361.564 33.2254 361.459 33.9614H366.643ZM369.421 35.824H361.429C361.489 36.6201 361.773 37.2359 362.251 37.6865C362.744 38.1371 363.341 38.3624 364.044 38.3624C365.074 38.3624 365.806 37.9268 366.225 37.0256H369.197C368.884 38.0921 368.271 38.9482 367.39 39.6392C366.493 40.3151 365.403 40.6606 364.088 40.6606C363.043 40.6606 362.087 40.4353 361.25 39.9546C360.414 39.489 359.756 38.813 359.293 37.9569C358.83 37.1007 358.591 36.1094 358.591 34.9828C358.591 33.8563 358.83 32.8499 359.278 31.9937C359.741 31.1376 360.384 30.4767 361.205 30.011C362.042 29.5454 362.983 29.3201 364.073 29.3201C365.164 29.3201 366.045 29.5454 366.867 29.996C367.689 30.4466 368.331 31.0775 368.779 31.9036C369.227 32.7298 369.451 33.676 369.451 34.7575C369.451 35.148 369.421 35.5085 369.377 35.824" fill="white"/>
<path d="M377.383 37.8818C377.817 37.6414 378.175 37.2659 378.444 36.7853C378.713 36.2896 378.832 35.7038 378.832 34.9978C378.832 33.9614 378.564 33.1503 378.011 32.5946C377.473 32.0388 376.801 31.7534 376.009 31.7534C375.217 31.7534 374.56 32.0388 374.037 32.5946C373.499 33.1503 373.231 33.9614 373.231 34.9978C373.231 36.0343 373.485 36.8454 374.007 37.4161C374.53 37.9869 375.187 38.2573 375.964 38.2573C376.472 38.2573 376.935 38.1371 377.368 37.8968M373.126 39.9696C372.289 39.504 371.617 38.8281 371.139 37.9719C370.661 37.1157 370.422 36.1244 370.422 34.9978C370.422 33.8713 370.676 32.88 371.169 32.0238C371.662 31.1676 372.334 30.5067 373.186 30.0261C374.037 29.5604 374.993 29.3201 376.039 29.3201C377.085 29.3201 378.041 29.5604 378.907 30.0261C379.759 30.4917 380.431 31.1526 380.924 32.0238C381.417 32.88 381.671 33.8713 381.671 34.9978C381.671 36.1244 381.417 37.1157 380.909 37.9719C380.401 38.8281 379.714 39.489 378.862 39.9696C377.996 40.4353 377.04 40.6756 375.964 40.6756C374.889 40.6756 373.963 40.4503 373.126 39.9696Z" fill="white"/>
<path d="M391.455 33.2404C391.186 32.7598 390.828 32.3843 390.395 32.144C389.961 31.8886 389.483 31.7684 388.96 31.7684C388.438 31.7684 387.989 31.9036 387.556 32.159C387.108 32.4143 386.765 32.7898 386.496 33.2855C386.227 33.7812 386.092 34.352 386.092 35.0129C386.092 35.6738 386.227 36.2445 386.496 36.7402C386.765 37.2359 387.123 37.5964 387.556 37.8668C387.989 38.1221 388.468 38.2573 388.96 38.2573C389.453 38.2573 389.946 38.1221 390.395 37.8668C390.843 37.5964 391.186 37.2209 391.455 36.7402C391.724 36.2445 391.858 35.6738 391.858 34.9978C391.858 34.3219 391.724 33.7662 391.455 33.2855M387.541 29.8308C388.169 29.5003 388.871 29.3201 389.677 29.3201C390.604 29.3201 391.455 29.5454 392.217 30.011C392.979 30.4767 393.576 31.1376 394.01 31.9787C394.443 32.8349 394.667 33.8262 394.667 34.9378C394.667 36.0493 394.443 37.0556 394.01 37.9268C393.576 38.798 392.964 39.4589 392.217 39.9396C391.455 40.4202 390.619 40.6606 389.677 40.6606C388.871 40.6606 388.169 40.4953 387.556 40.1649C386.944 39.8344 386.451 39.4139 386.062 38.9182V45.7225H383.299V29.5003H386.062V31.0925C386.421 30.5818 386.899 30.1763 387.526 29.8308" fill="white"/>
<path d="M399.059 25.8053H396.295V40.4803H399.059V25.8053Z" fill="white"/>
<path d="M408.679 33.9614C408.679 33.2555 408.41 32.6697 407.902 32.2491C407.394 31.8285 406.797 31.6032 406.065 31.6032C405.378 31.6032 404.81 31.8135 404.347 32.2341C403.884 32.6546 403.6 33.2254 403.495 33.9614H408.679ZM411.457 35.824H403.465C403.525 36.6201 403.809 37.2359 404.287 37.6865C404.78 38.1371 405.378 38.3624 406.08 38.3624C407.11 38.3624 407.842 37.9268 408.261 37.0256H411.233C410.92 38.0921 410.307 38.9482 409.426 39.6392C408.529 40.3151 407.439 40.6606 406.124 40.6606C405.079 40.6606 404.123 40.4353 403.286 39.9546C402.45 39.489 401.792 38.813 401.329 37.9569C400.866 37.1007 400.627 36.1094 400.627 34.9828C400.627 33.8563 400.866 32.8499 401.314 31.9937C401.777 31.1376 402.42 30.4767 403.241 30.011C404.078 29.5454 405.019 29.3201 406.11 29.3201C407.2 29.3201 408.081 29.5454 408.903 29.996C409.725 30.4466 410.367 31.0775 410.815 31.9036C411.263 32.7298 411.487 33.676 411.487 34.7575C411.487 35.148 411.457 35.5085 411.413 35.824" fill="white"/>
<path d="M230.287 58.2045C230.018 57.7238 229.675 57.3483 229.226 57.093C228.778 56.8376 228.3 56.7024 227.792 56.7024C227.285 56.7024 226.806 56.8226 226.373 57.078C225.94 57.3333 225.582 57.6938 225.313 58.1744C225.044 58.6551 224.909 59.2259 224.909 59.8868C224.909 60.5477 225.044 61.1185 225.313 61.6141C225.582 62.1098 225.94 62.4853 226.373 62.7557C226.806 63.0261 227.285 63.1462 227.777 63.1462C228.27 63.1462 228.763 63.0261 229.212 62.7557C229.66 62.5003 230.018 62.1248 230.272 61.6442C230.541 61.1635 230.661 60.5777 230.661 59.9018C230.661 59.2259 230.526 58.6551 230.272 58.1744M222.743 56.9428C223.191 56.0866 223.774 55.4257 224.536 54.9601C225.298 54.4944 226.134 54.2691 227.06 54.2691C227.882 54.2691 228.599 54.4343 229.212 54.7648C229.824 55.0952 230.317 55.5158 230.675 56.0115V54.4494H233.469V65.4444H230.675V63.8372C230.317 64.3479 229.839 64.7835 229.212 65.1139C228.584 65.4444 227.867 65.6246 227.046 65.6246C226.119 65.6246 225.283 65.3843 224.536 64.9036C223.774 64.423 223.177 63.7621 222.743 62.8909C222.31 62.0197 222.086 61.0283 222.086 59.9018C222.086 58.7753 222.31 57.7989 222.743 56.9428Z" fill="white"/>
<path d="M244.986 55.5158C245.793 56.3419 246.181 57.4985 246.181 58.9705V65.4143H243.418V59.346C243.418 58.4748 243.194 57.7989 242.76 57.3333C242.327 56.8677 241.73 56.6273 240.983 56.6273C240.236 56.6273 239.623 56.8526 239.175 57.3333C238.742 57.7989 238.518 58.4748 238.518 59.346V65.4143H235.754V54.4193H238.518V55.7862C238.891 55.3055 239.355 54.93 239.922 54.6596C240.49 54.3893 241.117 54.2541 241.804 54.2541C243.104 54.2541 244.165 54.6747 244.956 55.4858" fill="white"/>
<path d="M255.921 58.2045C255.652 57.7238 255.309 57.3483 254.86 57.093C254.412 56.8376 253.934 56.7024 253.426 56.7024C252.918 56.7024 252.44 56.8226 252.007 57.0779C251.574 57.3333 251.215 57.6938 250.947 58.1744C250.678 58.6551 250.543 59.2259 250.543 59.8868C250.543 60.5477 250.678 61.1185 250.947 61.6141C251.215 62.1098 251.574 62.4853 252.007 62.7557C252.44 63.0261 252.918 63.1462 253.411 63.1462C253.904 63.1462 254.397 63.0261 254.845 62.7557C255.294 62.5003 255.652 62.1248 255.906 61.6442C256.175 61.1635 256.294 60.5777 256.294 59.9018C256.294 59.2259 256.16 58.6551 255.906 58.1744M248.377 56.9428C248.825 56.0866 249.423 55.4257 250.185 54.9601C250.947 54.4944 251.798 54.2691 252.724 54.2691C253.441 54.2691 254.113 54.4193 254.756 54.7348C255.398 55.0502 255.906 55.4557 256.294 55.9815V50.7693H259.103V65.4444H256.294V63.8222C255.951 64.3629 255.473 64.7985 254.845 65.1289C254.233 65.4594 253.516 65.6246 252.694 65.6246C251.783 65.6246 250.932 65.3843 250.17 64.9036C249.408 64.423 248.81 63.7621 248.362 62.8909C247.929 62.0197 247.705 61.0283 247.705 59.9018C247.705 58.7753 247.929 57.7989 248.362 56.9428" fill="white"/>
<path d="M268.917 56.7175V62.0347C268.917 62.4102 269.007 62.6656 269.186 62.8458C269.365 63.011 269.664 63.1012 270.082 63.1012H271.367V65.4444H269.634C267.304 65.4444 266.139 64.3028 266.139 62.0347V56.7325H264.839V54.4494H266.139V51.7307H268.917V54.4494H271.367V56.7325H268.917V56.7175Z" fill="white"/>
<path d="M281.331 54.8249C281.973 55.1854 282.481 55.7261 282.84 56.4321C283.198 57.138 283.377 57.9942 283.377 58.9855V65.4293H280.614V59.3611C280.614 58.4899 280.39 57.814 279.957 57.3483C279.523 56.8827 278.926 56.6424 278.179 56.6424C277.432 56.6424 276.82 56.8827 276.371 57.3483C275.938 57.814 275.714 58.4899 275.714 59.3611V65.4293H272.951V50.7543H275.714V55.8162C276.073 55.3356 276.551 54.9601 277.133 54.6897C277.731 54.4193 278.373 54.2841 279.105 54.2841C279.927 54.2841 280.674 54.4644 281.316 54.8249" fill="white"/>
<path d="M292.908 58.8954C292.908 58.1895 292.639 57.6037 292.131 57.1831C291.638 56.7475 291.026 56.5372 290.294 56.5372C289.607 56.5372 289.039 56.7475 288.576 57.1681C288.113 57.5887 287.829 58.1594 287.724 58.8954H292.908ZM295.701 60.773H287.709C287.769 61.5691 288.053 62.1849 288.531 62.6355C289.024 63.0861 289.622 63.3115 290.324 63.3115C291.354 63.3115 292.086 62.8759 292.505 61.9746H295.477C295.164 63.0411 294.551 63.8973 293.67 64.5882C292.773 65.2641 291.668 65.6096 290.368 65.6096C289.308 65.6096 288.367 65.3843 287.53 64.9036C286.694 64.438 286.036 63.7621 285.573 62.9059C285.11 62.0497 284.871 61.0584 284.871 59.9318C284.871 58.8053 285.095 57.7989 285.558 56.9428C286.021 56.0866 286.664 55.4257 287.485 54.9601C288.307 54.4944 289.263 54.2691 290.354 54.2691C291.444 54.2691 292.325 54.4944 293.147 54.945C293.969 55.3957 294.611 56.0265 295.059 56.8526C295.507 57.6788 295.731 58.6251 295.731 59.7065C295.731 60.0971 295.701 60.4576 295.657 60.773" fill="white"/>
<path d="M308.339 57.3483C308.713 57.0029 308.892 56.5072 308.892 55.8613C308.892 54.5094 308.145 53.8335 306.636 53.8335H304.44V57.859H306.636C307.398 57.859 307.966 57.6788 308.339 57.3333M311.207 57.9491C310.864 58.595 310.311 59.1207 309.564 59.5113C308.817 59.9018 307.876 60.1121 306.756 60.1121H304.455V65.4293H301.692V51.5805H306.756C307.816 51.5805 308.727 51.7607 309.474 52.1362C310.221 52.5117 310.789 53.0074 311.162 53.6683C311.536 54.3142 311.73 55.0502 311.73 55.8613C311.73 56.5973 311.551 57.3033 311.207 57.9491Z" fill="white"/>
<path d="M316.047 50.7543H313.284V65.4293H316.047V50.7543Z" fill="white"/>
<path d="M325.877 58.2045C325.608 57.7238 325.264 57.3483 324.816 57.093C324.368 56.8376 323.89 56.7024 323.382 56.7024C322.874 56.7024 322.396 56.8226 321.963 57.078C321.53 57.3333 321.171 57.6938 320.902 58.1744C320.633 58.6551 320.499 59.2259 320.499 59.8868C320.499 60.5477 320.633 61.1185 320.902 61.6141C321.171 62.1098 321.53 62.4853 321.963 62.7557C322.396 63.0261 322.874 63.1462 323.367 63.1462C323.86 63.1462 324.353 63.0261 324.801 62.7557C325.249 62.5003 325.608 62.1248 325.862 61.6442C326.13 61.1635 326.25 60.5777 326.25 59.9018C326.25 59.2259 326.116 58.6551 325.862 58.1744M318.333 56.9428C318.781 56.0866 319.363 55.4257 320.125 54.9601C320.887 54.4944 321.724 54.2691 322.65 54.2691C323.471 54.2691 324.189 54.4343 324.801 54.7648C325.413 55.0952 325.906 55.5158 326.265 56.0115V54.4494H329.058V65.4444H326.265V63.8372C325.906 64.3479 325.428 64.7835 324.801 65.1139C324.174 65.4444 323.457 65.6246 322.635 65.6246C321.709 65.6246 320.872 65.3843 320.125 64.9036C319.363 64.423 318.766 63.7621 318.333 62.8909C317.9 62.0197 317.675 61.0283 317.675 59.9018C317.675 58.7753 317.9 57.7989 318.333 56.9428Z" fill="white"/>
<path d="M340.576 55.5158C341.382 56.3419 341.771 57.4985 341.771 58.9705V65.4143H339.007V59.346C339.007 58.4748 338.783 57.7989 338.35 57.3333C337.917 56.8677 337.319 56.6273 336.572 56.6273C335.825 56.6273 335.213 56.8526 334.765 57.3333C334.332 57.7989 334.107 58.4748 334.107 59.346V65.4143H331.344V54.4193H334.107V55.7862C334.481 55.3055 334.944 54.93 335.512 54.6596C336.079 54.3893 336.707 54.2541 337.394 54.2541C338.693 54.2541 339.754 54.6747 340.546 55.4858" fill="white"/>
<path d="M351.301 58.8954C351.301 58.1895 351.032 57.6037 350.525 57.1831C350.032 56.7475 349.419 56.5372 348.687 56.5372C348 56.5372 347.432 56.7475 346.969 57.1681C346.506 57.5887 346.222 58.1594 346.118 58.8954H351.301ZM354.095 60.773H346.103C346.163 61.5691 346.446 62.1849 346.924 62.6355C347.417 63.0861 348.015 63.3115 348.717 63.3115C349.748 63.3115 350.48 62.8759 350.898 61.9746H353.871C353.557 63.0411 352.945 63.8973 352.063 64.5882C351.167 65.2641 350.061 65.6096 348.762 65.6096C347.701 65.6096 346.76 65.3843 345.924 64.9036C345.087 64.438 344.43 63.7621 343.967 62.9059C343.504 62.0497 343.265 61.0584 343.265 59.9318C343.265 58.8053 343.489 57.7989 343.952 56.9428C344.415 56.0866 345.057 55.4257 345.879 54.9601C346.7 54.4944 347.656 54.2691 348.747 54.2691C349.837 54.2691 350.719 54.4944 351.54 54.945C352.362 55.3957 353.004 56.0265 353.452 56.8526C353.901 57.6788 354.125 58.6251 354.125 59.7065C354.125 60.0971 354.095 60.4576 354.05 60.773" fill="white"/>
<path d="M359.009 56.7175V62.0347C359.009 62.4102 359.099 62.6656 359.278 62.8458C359.458 63.011 359.756 63.1012 360.175 63.1012H361.459V65.4444H359.726C357.396 65.4444 356.231 64.3028 356.231 62.0347V56.7325H354.931V54.4494H356.231V51.7307H359.009V54.4494H361.459V56.7325H359.009V56.7175Z" fill="white"/>
</svg>
